# xmcd CD database file
#
# Track frame offsets:
#	182
#	8557
#	22585
#	34270
#	50965
#	62027
#	73172
#	86610
#	97112
#	112342
#	125412
#	140260
#	151602
#	167875
#	187340
#	206817
#
# Disc length: 2932 seconds
#
# Revision: 10
# Processed by: cddbd v1.5.2PL0 Copyright (c) Steve Scherf et al.
# Submitted via: CDex 1.50
#
DISCID=e60b7210
DTITLE=Various SWEET MEMORIES - OF COUNTRY AND WESTERN
DYEAR=1996
DGENRE=Country
TTITLE0=San Quentin - J. Cah - Silverstein 3.15
TTITLE1=Let It Go - Trad. 3.20
TTITLE2=Standby your man - K.P.M. 3.30
TTITLE3=Together again - Greenfield 3.00
TTITLE4=Blue Moon - Trad 3.25
TTITLE5=All the gold in California - Larry Gatman 3.47
TTITLE6=Mr. D.J. - Francis House 3.20
TTITLE7=A thing called Love - J. Cash - Silverstein 3.15
TTITLE8=Tie a yellow ribbon - Brown - Lavine 3.25
TTITLE9=Divorce - B. Braddock - C. Putmann 3.00
TTITLE10=I recall gipsy woman - J. Reeves 3.15
TTITLE11=Is it reály over - J. Reeves 3.20
TTITLE12=Blanket on the ground - Bowling 3.28
TTITLE13=Sundaymorning coming down - Chr. Kristoffersen - Combine 3.12
TTITLE14=Coward of the county /R. Bowling - E. Wheeler 3.21
TTITLE15=Ruby - K. Rodgers 3.15
EXTD=YEAR: 1996
EXTT0=
EXTT1=
EXTT2=
EXTT3=
EXTT4=
EXTT5=
EXTT6=
EXTT7=
EXTT8=
EXTT9=
EXTT10=
EXTT11=
EXTT12=
EXTT13=
EXTT14=
EXTT15=
PLAYORDER=
